<?xml version="1.0" standalone="no"?>
<!DOCTYPE svg PUBLIC "-//W3C//DTD SVG 20010904//EN"
 "http://www.w3.org/TR/2001/REC-SVG-20010904/DTD/svg10.dtd">
<svg version="1.0" xmlns="http://www.w3.org/2000/svg"
 width="1024.000000pt" height="1024.000000pt" viewBox="0 0 1024.000000 1024.000000"
 preserveAspectRatio="xMidYMid meet">
<metadata>
Created by potrace 1.11, written by Peter Selinger 2001-2013
</metadata>
<g transform="translate(0.000000,1024.000000) scale(0.100000,-0.100000)"
fill="#000000" stroke="none">
<path d="M0 5120 l0 -5120 5120 0 5120 0 0 5120 0 5120 -5120 0 -5120 0 0
-5120z m4272 2503 l48 -47 0 -1079 c0 -965 2 -1079 15 -1073 9 3 46 15 83 26
l67 21 828 1100 829 1099 357 0 357 0 39 -79 38 -80 -54 -70 c-30 -38 -400
-515 -823 -1058 l-770 -988 -102 -80 c-57 -44 -100 -83 -96 -86 4 -4 64 -52
135 -107 l127 -99 900 -1147 900 -1146 -38 -77 -37 -78 -387 -3 -387 -2 -53
64 c-29 36 -431 546 -893 1135 l-840 1070 -97 0 -98 1 0 -1087 0 -1087 -47
-48 -47 -48 -289 0 -288 0 -49 46 -50 47 0 2457 0 2457 50 47 49 46 288 0 287
0 48 -47z"/>
</g>
</svg>
